<svg width="605" height="337" viewBox="0 0 605 337" fill="none" xmlns="http://www.w3.org/2000/svg">
<path d="M301 0C228.651 0 170 58.6507 170 131C170 141.501 171.236 151.714 173.569 161.5L189.5 154L240 98L270 128.5L297.5 143.5L306 160.5L335.5 176L365.5 169.5L392 143.5L422.729 179.5C428.711 164.5 432 148.134 432 131C432 58.6507 373.349 0 301 0Z" fill="#FBAA4B"/>
<path d="M4 287L40 264L60 259L74 231L96 221L108 212H121L137 193L145 176L162 170L171 161L189 154L240 98L273 131L297 143L306 161L336 176L364 170L383 154L393 143L416 170L431 193L472 206L495 236L513 248L528 259L544 274H568L590 287L601 302" stroke="white" stroke-width="7" stroke-linecap="round" stroke-linejoin="round"/>
<path d="M75 231L51.5 277.5L61.5 276L75 260L87 257.5L90.5 254H95L105.5 247V242L113 237.5L119.5 229.5L122 212H108L97 220.5L75 231Z" fill="white" fill-opacity="0.31"/>
<path d="M72.5 298.5L79 285L68 292L61 290.5L55 292L47 302.5L43 304L49 308.5L55 304L58.5 305L65 300.5L72.5 298.5Z" fill="white" fill-opacity="0.31"/>
<path d="M5 307L6 289L40 264L60 262L49 279.5L33 289.5L25 300.5L17 306L5 307Z" fill="white" fill-opacity="0.31"/>
<path d="M364.5 197L344.5 177L363.5 171L392.5 148L393.5 164L387 182.5L385 194L370 213.5L366.5 221.5L364.5 210.5L350.5 221.5L337.5 223.5V221.5L354.5 210.5L364.5 197Z" fill="white" fill-opacity="0.31"/>
<path d="M362.5 222L366.5 223.5V237.5L356.5 253.5L350 255.5L330.5 248.5L308 264.5L289 261.5L295 257.5H308L324 243L333.5 240.5L338.5 242L341.5 239H346.5L353.5 234.5L362.5 222Z" fill="white" fill-opacity="0.31"/>
<path d="M146 178L127 208.5L134 211L139 205.5L155.5 198.5L161.5 195L166 188.5V196L146 221L136.5 223.5L131 231.5L134 228.5L139 230L146 228.5L167.5 201.5L174 198.5L180.5 200L194 201.5L208 200L185.5 226L180.5 227L167.5 238.5L158 240.5L150 251L157 247L163 248.5L172.5 247L190 244.5L178 260.5H174L168.5 268.5V276.5L174 278L168.5 284.5L161.5 278L154 279.5L146 278L139 279.5L128 276.5L119.5 279.5L107 291.5L94 298.5V303.5H103L118 293L129.5 291.5H139L144.5 296L157 294L155.5 301.5H150L141 307L136.5 306L122 311.5L117 316.5H122L131 319L134 315.5H141L144.5 316.5L150 311.5L154 313L180.5 296L192 272L211 255L213 247L200 240L221.5 222L225 205.5L236 191L240.5 180V167L235 158.5V143.5L240.5 137.5L246 118.5L240.5 99.5L192 152L174 158.5L163 170.5L146 178Z" fill="white" fill-opacity="0.31"/>
<path d="M241 101L246 117L241 137L235.5 143.5V159.5L241 168V180L235.5 192L224.5 206L221 223L200 240L213 246.5L211 254.5L192.5 271.5L180 296L154 312.5M392.5 143.5V165L387 183L385 194.5L369 215.5L366 238L356 254.5M356 254.5L332 264.5L319 268.5L309.5 279.5L289.5 286.5M356 254.5L360.5 271.5L366 278V289.5L381 305L398 311.5L410.5 323L420.5 334.5M431 194.5L438.5 213L452 223L458 236M467 244L470.5 249.5M482 261L492 268.5L495 276L499.5 278M518.5 301L527.5 308.5H535.5L544 316.5M552 326L555.5 329.5M410.5 206L415 210.5M415 244L420.5 249.5H426L431 256.5M441 261L443.5 264.5M433.5 276L443.5 282.5M452 296L455.5 299.5M263 123L272.5 141V148.5L283 153.5L285.5 161.5M289.5 165L292 170M305.5 161.5L309.5 176.5L315.5 183L317.5 192M322 199.5L324.5 206L332 210.5M283 197L289.5 206L301 215.5L305.5 223L309.5 226.5M319 223L322 226.5M315.5 232.5L319 236M241 197L246 203L250 206H253.5L258 213M263 220L267 226.5M541.5 273.5L555.5 290.5L562.5 304L574.5 308.5L581.5 319M588.5 322L590.5 324.5M123 213L119 229.5L114 236L105.5 242V246.5M101.5 252.5L98.5 261.5L95 264.5H89.5L87 268.5M62 258.5L49 279.5L32.5 289.5L25.5 299.5" stroke="white" stroke-width="4" stroke-linecap="round" stroke-linejoin="round"/>
</svg>
