<svg width="56" height="56" viewBox="0 0 56 56" fill="none" xmlns="http://www.w3.org/2000/svg">
<circle cx="28" cy="20" r="17.5" fill="#008ED6" stroke="white" stroke-width="3"/>
<ellipse cx="28" cy="45" rx="12" ry="6" fill="#727272" fill-opacity="0.54"/>
<rect x="26" y="35" width="4" height="10" fill="#008ED6"/>
<path d="M22.5767 26.4603C22.5767 26.6312 22.5089 26.795 22.388 26.9158C22.2672 27.0366 22.1034 27.1045 21.9325 27.1045V28.3929C21.9325 28.5637 21.8647 28.7276 21.7439 28.8484C21.6231 28.9692 21.4592 29.037 21.2884 29.037C21.1175 29.037 20.9537 28.9692 20.8329 28.8484C20.712 28.7276 20.6442 28.5637 20.6442 28.3929V27.1045C20.4733 27.1045 20.3095 27.0366 20.1887 26.9158C20.0679 26.795 20 26.6312 20 26.4603C20 26.2895 20.0679 26.1256 20.1887 26.0048C20.3095 25.884 20.4733 25.8161 20.6442 25.8161V11.6442C20.6442 11.4733 20.712 11.3095 20.8329 11.1887C20.9537 11.0679 21.1175 11 21.2884 11C21.4592 11 21.6231 11.0679 21.7439 11.1887C21.8647 11.3095 21.9325 11.4733 21.9325 11.6442V25.8161C22.1034 25.8161 22.2672 25.884 22.388 26.0048C22.5089 26.1256 22.5767 26.2895 22.5767 26.4603ZM36.7487 25.8161V11.6442C36.7487 11.4733 36.6808 11.3095 36.56 11.1887C36.4392 11.0679 36.2753 11 36.1045 11C35.9337 11 35.7698 11.0679 35.649 11.1887C35.5282 11.3095 35.4603 11.4733 35.4603 11.6442V25.8161C35.2895 25.8161 35.1256 25.884 35.0048 26.0048C34.884 26.1256 34.8161 26.2895 34.8161 26.4603C34.8161 26.6312 34.884 26.795 35.0048 26.9158C35.1256 27.0366 35.2895 27.1045 35.4603 27.1045V28.3929C35.4603 28.5637 35.5282 28.7276 35.649 28.8484C35.7698 28.9692 35.9337 29.037 36.1045 29.037C36.2753 29.037 36.4392 28.9692 36.56 28.8484C36.6808 28.7276 36.7487 28.5637 36.7487 28.3929V27.1045C36.9195 27.1045 37.0834 27.0366 37.2042 26.9158C37.325 26.795 37.3929 26.6312 37.3929 26.4603C37.3929 26.2895 37.325 26.1256 37.2042 26.0048C37.0834 25.884 36.9195 25.8161 36.7487 25.8161ZM25.7976 11H25.1534C24.6409 11 24.1493 11.2036 23.7869 11.566C23.4245 11.9284 23.2209 12.42 23.2209 12.9325V27.1045C23.2209 27.617 23.4245 28.1086 23.7869 28.471C24.1493 28.8334 24.6409 29.037 25.1534 29.037H25.7976C26.3102 29.037 26.8017 28.8334 27.1641 28.471C27.5266 28.1086 27.7302 27.617 27.7302 27.1045V12.9325C27.7302 12.42 27.5266 11.9284 27.1641 11.566C26.8017 11.2036 26.3102 11 25.7976 11ZM31.5952 11H30.9511C30.4385 11 29.947 11.2036 29.5845 11.566C29.2221 11.9284 29.0185 12.42 29.0185 12.9325V27.1045C29.0185 27.617 29.2221 28.1086 29.5845 28.471C29.947 28.8334 30.4385 29.037 30.9511 29.037H31.5952C32.1078 29.037 32.5993 28.8334 32.9618 28.471C33.3242 28.1086 33.5278 27.617 33.5278 27.1045V12.9325C33.5278 12.42 33.3242 11.9284 32.9618 11.566C32.5993 11.2036 32.1078 11 31.5952 11Z" fill="white"/>
</svg>
